<svg xmlns="http://www.w3.org/2000/svg" viewBox="0 0 1200 630">
  <defs>
    <linearGradient id="bgGrad" x1="0%" y1="0%" x2="100%" y2="100%">
      <stop offset="0%" style="stop-color:#0f172a;stop-opacity:1" />
      <stop offset="100%" style="stop-color:#1e293b;stop-opacity:1" />
    </linearGradient>
    <linearGradient id="accentGrad" x1="0%" y1="0%" x2="100%" y2="100%">
      <stop offset="0%" style="stop-color:#6366f1;stop-opacity:1" />
      <stop offset="100%" style="stop-color:#a855f7;stop-opacity:1" />
    </linearGradient>
  </defs>
  
  <rect width="1200" height="630" fill="url(#bgGrad)"/>
  
  <rect x="60" y="60" width="1080" height="510" rx="24" fill="none" stroke="#334155" stroke-width="2"/>
  
  <g transform="translate(100, 200)">
    <rect width="120" height="120" rx="24" fill="url(#accentGrad)"/>
    <path d="M30 45h40v15H45v10h25v15H45v10h35v-15h-15v-10h10v-10h-10v-5h20V45H30v30h25v10H30V45z" fill="white"/>
    <circle cx="95" cy="25" r="12" fill="#22d3ee"/>
  </g>
  
  <text x="350" y="280" font-family="system-ui, -apple-system, sans-serif" font-size="72" font-weight="bold" fill="white">evo dash</text>
  
  <text x="350" y="350" font-family="system-ui, -apple-system, sans-serif" font-size="28" fill="#94a3b8">AI-Powered Analytics Dashboard</text>
  
  <g transform="translate(350, 420)">
    <rect width="200" height="8" rx="4" fill="#334155"/>
    <rect width="160" height="8" rx="4" fill="url(#accentGrad)" opacity="0.6"/>
    
    <rect y="30" width="200" height="8" rx="4" fill="#334155"/>
    <rect y="30" width="120" height="8" rx="4" fill="url(#accentGrad)" opacity="0.4"/>
    
    <rect y="60" width="200" height="8" rx="4" fill="#334155"/>
    <rect y="60" width="180" height="8" rx="4" fill="url(#accentGrad)" opacity="0.5"/>
  </g>
  
  <g transform="translate(900, 200)">
    <circle cx="60" cy="60" r="50" fill="#334155" opacity="0.5"/>
    <path d="M45 60 L55 70 L80 45" stroke="#22d3ee" stroke-width="8" fill="none" stroke-linecap="round" stroke-linejoin="round"/>
  </g>
</svg>